<svg xmlns="http://www.w3.org/2000/svg" viewBox="0 0 512 512" fill="none">
  <defs>
    <linearGradient id="bw-grad" x1="0" y1="0" x2="512" y2="512" gradientUnits="userSpaceOnUse">
      <stop offset="0%" stop-color="#0182ff"/>
      <stop offset="100%" stop-color="#32f6e0"/>
    </linearGradient>
    <linearGradient id="bg-grad" x1="0" y1="0" x2="512" y2="512" gradientUnits="userSpaceOnUse">
      <stop offset="0%" stop-color="#080e1c"/>
      <stop offset="100%" stop-color="#0c1628"/>
    </linearGradient>
    <style>
      @import url('https://fonts.googleapis.com/css2?family=Orbitron:wght@900&amp;display=swap');
    </style>
  </defs>
  <!-- Gradient dark background -->
  <rect width="512" height="512" rx="64" fill="url(#bg-grad)"/>
  <!-- Shield shape, brighter -->
  <path d="M96 80h320a16 16 0 0 1 16 16v208a96 96 0 0 1-42 79.2L256 472l-134-88.8A96 96 0 0 1 80 304V96a16 16 0 0 1 16-16z" fill="url(#bw-grad)" opacity="0.15"/>
  <path d="M96 80h320a16 16 0 0 1 16 16v208a96 96 0 0 1-42 79.2L256 472l-134-88.8A96 96 0 0 1 80 304V96a16 16 0 0 1 16-16z" fill="none" stroke="url(#bw-grad)" stroke-width="4"/>
  <!-- B letter -->
  <text x="130" y="330" font-family="'Orbitron', sans-serif" font-weight="900" font-size="200" fill="url(#bw-grad)">B</text>
  <!-- W letter -->
  <text x="280" y="330" font-family="'Orbitron', sans-serif" font-weight="900" font-size="200" fill="url(#bw-grad)" opacity="0.7">W</text>
</svg>
